<svg id="Calque_1" data-name="Calque 1" xmlns="http://www.w3.org/2000/svg" viewBox="0 0 282.97 53.03"><defs><style>.cls-1{fill:#3f3e3f;}.cls-2{fill:#0ea593;}</style></defs><title>name</title><path class="cls-1" d="M50.73,59.79a7.85,7.85,0,0,1-3.17,2.44,10.52,10.52,0,0,1-4.18.82,7.54,7.54,0,0,1-6.06-2.58A11,11,0,0,1,35,53.3V47.21q0-4.8,2.09-7.36a7.27,7.27,0,0,1,6-2.56,7.44,7.44,0,0,1,5.42,1.91,8.15,8.15,0,0,1,2.2,5.51h-2a6.68,6.68,0,0,0-1.7-4.23,5.47,5.47,0,0,0-4-1.33,5.36,5.36,0,0,0-4.59,2,9.9,9.9,0,0,0-1.52,6V53a9.76,9.76,0,0,0,1.68,6.09,5.61,5.61,0,0,0,4.71,2.17,7.27,7.27,0,0,0,5.37-2.08V52.62H43.26V50.77h7.47Z" transform="translate(-35.03 -37.29)"/><path class="cls-1" d="M70.94,37.64V55.42a7.81,7.81,0,0,1-2,5.63,7.31,7.31,0,0,1-5.5,2,7.37,7.37,0,0,1-5.53-2A7.88,7.88,0,0,1,56,55.35V37.64h2V55.28q0,5.94,5.49,5.94T69,55.46V37.64Z" transform="translate(-35.03 -37.29)"/><path class="cls-1" d="M78.81,62.7h-2V37.64h2Z" transform="translate(-35.03 -37.29)"/><path class="cls-1" d="M87.07,60.88H97.4V62.7H85.09V37.64h2Z" transform="translate(-35.03 -37.29)"/><path class="cls-1" d="M103.43,60.88h10.33V62.7H101.45V37.64h2Z" transform="translate(-35.03 -37.29)"/><path class="cls-1" d="M129.52,55.7h-9.4l-2.13,7h-2l8-25.06h1.82l8,25.06h-2Zm-8.83-1.84H129l-4.13-13.44Z" transform="translate(-35.03 -37.29)"/><path class="cls-1" d="M151.73,37.64V55.42a7.81,7.81,0,0,1-2,5.63,8.66,8.66,0,0,1-11,0,7.88,7.88,0,0,1-1.92-5.72V37.64h2V55.28q0,5.94,5.49,5.94t5.47-5.77V37.64Z" transform="translate(-35.03 -37.29)"/><path class="cls-1" d="M159.87,37.64l7.59,22.05,7.63-22.05h2.6V62.7h-2V51.84l.17-10.93L168.22,62.7h-1.52L159.06,41l.17,10.76V62.7h-2V37.64Z" transform="translate(-35.03 -37.29)"/><path class="cls-1" d="M195.32,50.7h-9.73V60.88h11.19V62.7H183.63V37.64h13.07V39.5h-11.1v9.38h9.73Z" transform="translate(-35.03 -37.29)"/><path class="cls-2" d="M216.87,52.27H211V62.7h-2V37.64h6.87a7,7,0,0,1,5.31,2A7.5,7.5,0,0,1,223.1,45a7.75,7.75,0,0,1-1.17,4.26,6.08,6.08,0,0,1-3.15,2.54L224,62.48v.22h-2.1ZM211,50.45h5.23a4.47,4.47,0,0,0,3.55-1.52,5.73,5.73,0,0,0,1.33-3.9,5.68,5.68,0,0,0-1.38-4.08,5.07,5.07,0,0,0-3.86-1.45H211Z" transform="translate(-35.03 -37.29)"/><path class="cls-2" d="M244,52.89q0,4.85-2.12,7.51a8,8,0,0,1-11.93,0q-2.16-2.65-2.18-7.45V47.49q0-4.84,2.15-7.51a8,8,0,0,1,11.95,0Q244,42.67,244,47.54Zm-2-5.44q0-4.11-1.58-6.18a6,6,0,0,0-9.06,0q-1.62,2-1.65,6.05v5.61q0,4.13,1.64,6.21a5.46,5.46,0,0,0,4.54,2.07,5.35,5.35,0,0,0,4.55-2.07Q242,57,242,52.89Z" transform="translate(-35.03 -37.29)"/><path class="cls-2" d="M249.25,62.7V37.64h6.35a7.19,7.19,0,0,1,5.14,1.66,6.44,6.44,0,0,1,1.75,4.89,6.19,6.19,0,0,1-.9,3.35,5.09,5.09,0,0,1-2.48,2.06,5,5,0,0,1,3,2.13,6.79,6.79,0,0,1,1.13,3.9,7.22,7.22,0,0,1-1.79,5.17,6.65,6.65,0,0,1-5.08,1.89Zm2-13.84h4.56a4.82,4.82,0,0,0,3.48-1.19,4.67,4.67,0,0,0,1.24-3.53,4.59,4.59,0,0,0-1.21-3.52,5.24,5.24,0,0,0-3.67-1.13h-4.39Zm0,1.79V60.88h5.2a4.6,4.6,0,0,0,3.53-1.38,5.38,5.38,0,0,0,1.29-3.83A5.25,5.25,0,0,0,260,52a4.38,4.38,0,0,0-3.33-1.4Z" transform="translate(-35.03 -37.29)"/><path class="cls-2" d="M279.82,50.7H270.1V60.88h11.19V62.7H268.13V37.64H281.2V39.5H270.1v9.38h9.73Z" transform="translate(-35.03 -37.29)"/><path class="cls-2" d="M293.46,52.27h-5.85V62.7h-2V37.64h6.87a7,7,0,0,1,5.31,2A7.49,7.49,0,0,1,299.69,45a7.75,7.75,0,0,1-1.17,4.26,6.08,6.08,0,0,1-3.15,2.54l5.22,10.66v.22h-2.1Zm-5.85-1.82h5.23a4.46,4.46,0,0,0,3.55-1.52,5.73,5.73,0,0,0,1.33-3.9,5.68,5.68,0,0,0-1.38-4.08,5.07,5.07,0,0,0-3.86-1.45h-4.87Z" transform="translate(-35.03 -37.29)"/><path class="cls-2" d="M318,39.5h-7.13V62.7h-2V39.5h-7.11V37.64H318Z" transform="translate(-35.03 -37.29)"/><path class="cls-2" d="M35.88,86.49V73.71h3a4.4,4.4,0,0,1,3.48,1.4A5.75,5.75,0,0,1,43.64,79v2.14a5.63,5.63,0,0,1-1.26,3.92,4.67,4.67,0,0,1-3.64,1.38Zm1.61-11.4v10h1.29a3,3,0,0,0,2.48-1,4.59,4.59,0,0,0,.8-2.88V79a4.63,4.63,0,0,0-.78-3,2.86,2.86,0,0,0-2.35-.95Z" transform="translate(-35.03 -37.29)"/><path class="cls-2" d="M49.32,86.67a3.46,3.46,0,0,1-2.72-1.06,4.57,4.57,0,0,1-1-3.1V81.36A5.35,5.35,0,0,1,46.55,78a3.07,3.07,0,0,1,2.58-1.21,3,3,0,0,1,2.49,1.06,5.46,5.46,0,0,1,.84,3.31v1h-5.3v.22a3.46,3.46,0,0,0,.58,2.22,2,2,0,0,0,1.65.69,2.69,2.69,0,0,0,1.21-.26,3,3,0,0,0,1-.82l.81,1A3.53,3.53,0,0,1,49.32,86.67Zm-.18-8.51a1.63,1.63,0,0,0-1.43.66,3.93,3.93,0,0,0-.53,2.06h3.74v-.21a3.63,3.63,0,0,0-.49-1.93A1.5,1.5,0,0,0,49.14,78.15ZM49.89,73h2l-2.35,2.58H48.2Z" transform="translate(-35.03 -37.29)"/><path class="cls-2" d="M56.92,84.13,58.72,77H60.3l-2.82,9.5H56.32L53.47,77H55Z" transform="translate(-35.03 -37.29)"/><path class="cls-2" d="M65.19,86.67a3.46,3.46,0,0,1-2.72-1.06,4.57,4.57,0,0,1-1-3.1V81.36A5.35,5.35,0,0,1,62.43,78,3.07,3.07,0,0,1,65,76.82a3,3,0,0,1,2.49,1.06,5.46,5.46,0,0,1,.84,3.31v1h-5.3v.22a3.46,3.46,0,0,0,.58,2.22,2,2,0,0,0,1.65.69,2.69,2.69,0,0,0,1.21-.26,3,3,0,0,0,1-.82l.81,1A3.53,3.53,0,0,1,65.19,86.67ZM65,78.15a1.63,1.63,0,0,0-1.43.66,3.93,3.93,0,0,0-.53,2.06H66.8v-.21a3.63,3.63,0,0,0-.49-1.93A1.5,1.5,0,0,0,65,78.15Z" transform="translate(-35.03 -37.29)"/><path class="cls-2" d="M71.89,86.49H70.34V73h1.55Z" transform="translate(-35.03 -37.29)"/><path class="cls-2" d="M74,81.3A5,5,0,0,1,75,78a3.55,3.55,0,0,1,5.31,0,4.87,4.87,0,0,1,1,3.2v1a4.94,4.94,0,0,1-1,3.26,3.57,3.57,0,0,1-5.31,0,4.84,4.84,0,0,1-1-3.16Zm1.55.9a4,4,0,0,0,.58,2.3,1.79,1.79,0,0,0,1.55.84q2.05,0,2.12-3V81.3a4,4,0,0,0-.58-2.3,1.79,1.79,0,0,0-1.55-.85,1.77,1.77,0,0,0-1.53.85,4,4,0,0,0-.58,2.3Z" transform="translate(-35.03 -37.29)"/><path class="cls-2" d="M90.22,82.2a5.68,5.68,0,0,1-.81,3.36,2.68,2.68,0,0,1-2.29,1.11,2.54,2.54,0,0,1-2.2-1.08v4.56H83.36V77h1.4L84.85,78a2.5,2.5,0,0,1,2.24-1.23,2.67,2.67,0,0,1,2.33,1.09,5.75,5.75,0,0,1,.8,3.26Zm-1.54-.89A4.43,4.43,0,0,0,88.18,79a1.74,1.74,0,0,0-1.58-.76,1.83,1.83,0,0,0-1.69,1.12v4.94a1.83,1.83,0,0,0,1.71,1.09,1.72,1.72,0,0,0,1.55-.76,4.36,4.36,0,0,0,.5-2.32Z" transform="translate(-35.03 -37.29)"/><path class="cls-2" d="M99.08,82.2a5.68,5.68,0,0,1-.81,3.36A2.68,2.68,0,0,1,96,86.67a2.54,2.54,0,0,1-2.2-1.08v4.56H92.23V77h1.4L93.71,78a2.5,2.5,0,0,1,2.24-1.23,2.67,2.67,0,0,1,2.33,1.09,5.75,5.75,0,0,1,.8,3.26Zm-1.54-.89A4.43,4.43,0,0,0,97,79a1.74,1.74,0,0,0-1.58-.76,1.83,1.83,0,0,0-1.69,1.12v4.94a1.83,1.83,0,0,0,1.71,1.09A1.72,1.72,0,0,0,97,84.58a4.36,4.36,0,0,0,.5-2.32Z" transform="translate(-35.03 -37.29)"/><path class="cls-2" d="M104.48,86.67a3.46,3.46,0,0,1-2.72-1.06,4.57,4.57,0,0,1-1-3.1V81.36a5.35,5.35,0,0,1,.93-3.33,3.07,3.07,0,0,1,2.58-1.21,3,3,0,0,1,2.49,1.06,5.46,5.46,0,0,1,.84,3.31v1h-5.3v.22a3.46,3.46,0,0,0,.58,2.22,2,2,0,0,0,1.65.69,2.69,2.69,0,0,0,1.21-.26,3,3,0,0,0,1-.82l.81,1A3.53,3.53,0,0,1,104.48,86.67Zm-.18-8.51a1.63,1.63,0,0,0-1.43.66,3.93,3.93,0,0,0-.53,2.06h3.74v-.21a3.63,3.63,0,0,0-.49-1.93A1.5,1.5,0,0,0,104.31,78.15Z" transform="translate(-35.03 -37.29)"/><path class="cls-2" d="M114.35,85.66a2.66,2.66,0,0,1-2.26,1,2.27,2.27,0,0,1-1.95-.89,4.36,4.36,0,0,1-.67-2.59V77H111v6.07q0,2.22,1.33,2.22A2,2,0,0,0,114.3,84V77h1.55v9.5h-1.47Z" transform="translate(-35.03 -37.29)"/><path class="cls-2" d="M122.11,78.45a3.77,3.77,0,0,0-.7-.06,1.7,1.7,0,0,0-1.67,1.31v6.79h-1.55V77h1.51l0,1a1.93,1.93,0,0,1,1.76-1.14,1.37,1.37,0,0,1,.61.12Z" transform="translate(-35.03 -37.29)"/><path class="cls-2" d="M134.86,83.76,136.3,77h1.54l-2.33,9.5h-1.24l-1.85-6.79-1.81,6.79h-1.25L127.06,77h1.53l1.47,6.6,1.76-6.6h1.23Z" transform="translate(-35.03 -37.29)"/><path class="cls-2" d="M142.86,86.67a3.46,3.46,0,0,1-2.72-1.06,4.57,4.57,0,0,1-1-3.1V81.36a5.35,5.35,0,0,1,.93-3.33,3.07,3.07,0,0,1,2.58-1.21,3,3,0,0,1,2.49,1.06,5.46,5.46,0,0,1,.84,3.31v1h-5.3v.22a3.46,3.46,0,0,0,.58,2.22,2,2,0,0,0,1.65.69,2.69,2.69,0,0,0,1.21-.26,3,3,0,0,0,1-.82l.81,1A3.53,3.53,0,0,1,142.86,86.67Zm-.18-8.51a1.63,1.63,0,0,0-1.43.66,3.93,3.93,0,0,0-.53,2.06h3.74v-.21a3.63,3.63,0,0,0-.49-1.93A1.5,1.5,0,0,0,142.68,78.15Z" transform="translate(-35.03 -37.29)"/><path class="cls-2" d="M154.76,82.2a5.77,5.77,0,0,1-.8,3.34,2.67,2.67,0,0,1-2.32,1.12,2.46,2.46,0,0,1-2.26-1.3l-.08,1.12h-1.41V73h1.54v5a2.44,2.44,0,0,1,2.19-1.22A2.68,2.68,0,0,1,154,77.93a5.83,5.83,0,0,1,.79,3.33Zm-1.54-.89a4.56,4.56,0,0,0-.47-2.4,1.69,1.69,0,0,0-1.52-.71,1.9,1.9,0,0,0-1.79,1.3V84a1.9,1.9,0,0,0,1.81,1.28,1.64,1.64,0,0,0,1.51-.74,4.51,4.51,0,0,0,.46-2.29Z" transform="translate(-35.03 -37.29)"/><path class="cls-2" d="M162.45,77V87.69q0,2.64-2.09,2.64a2.2,2.2,0,0,1-.85-.16V88.88a2.17,2.17,0,0,0,.61.07.67.67,0,0,0,.59-.29,1.94,1.94,0,0,0,.2-1V77Zm.07-2.52a1,1,0,0,1-.22.66.82.82,0,0,1-.67.26.79.79,0,0,1-.65-.26,1,1,0,0,1-.22-.66,1,1,0,0,1,.22-.67.78.78,0,0,1,.65-.27.8.8,0,0,1,.66.28A1,1,0,0,1,162.52,74.48Z" transform="translate(-35.03 -37.29)"/><path class="cls-2" d="M169.72,85.66a2.66,2.66,0,0,1-2.26,1,2.27,2.27,0,0,1-1.95-.89,4.36,4.36,0,0,1-.67-2.59V77h1.54v6.07q0,2.22,1.33,2.22A2,2,0,0,0,169.68,84V77h1.55v9.5h-1.47Z" transform="translate(-35.03 -37.29)"/><path class="cls-2" d="M175,77l0,1a2.77,2.77,0,0,1,2.31-1.2q2.52,0,2.55,3.36v6.31H178.4V80.25a2.59,2.59,0,0,0-.37-1.58,1.34,1.34,0,0,0-1.12-.47,1.57,1.57,0,0,0-1,.39,2.77,2.77,0,0,0-.74,1v6.9h-1.55V77Z" transform="translate(-35.03 -37.29)"/><path class="cls-2" d="M184.06,74.48a1,1,0,0,1-.22.66.82.82,0,0,1-.67.26.81.81,0,0,1-.66-.26,1,1,0,0,1-.22-.66,1,1,0,0,1,.22-.67.79.79,0,0,1,.66-.27.8.8,0,0,1,.66.28A1,1,0,0,1,184.06,74.48Zm-.12,12h-1.55V77h1.55Z" transform="translate(-35.03 -37.29)"/><path class="cls-2" d="M186.06,81.3a5,5,0,0,1,1-3.28,3.55,3.55,0,0,1,5.31,0,4.87,4.87,0,0,1,1,3.2v1a5,5,0,0,1-1,3.26,3.57,3.57,0,0,1-5.31,0,4.84,4.84,0,0,1-1-3.16Zm1.55.9a4,4,0,0,0,.57,2.3,1.79,1.79,0,0,0,1.55.84q2.05,0,2.12-3V81.3a4,4,0,0,0-.58-2.3,1.79,1.79,0,0,0-1.55-.85,1.77,1.77,0,0,0-1.53.85,4,4,0,0,0-.57,2.3Z" transform="translate(-35.03 -37.29)"/><path class="cls-2" d="M199.33,78.45a3.76,3.76,0,0,0-.7-.06A1.7,1.7,0,0,0,197,79.7v6.79h-1.55V77h1.51l0,1a1.93,1.93,0,0,1,1.76-1.14,1.37,1.37,0,0,1,.62.12Z" transform="translate(-35.03 -37.29)"/></svg>